<svg width="32" height="32" viewBox="0 0 32 32" fill="none" xmlns="http://www.w3.org/2000/svg">
<g id="Icon">
<path id="Vector" d="M16 32C24.8366 32 32 24.8366 32 16C32 7.16344 24.8366 0 16 0C7.16344 0 0 7.16344 0 16C0 24.8366 7.16344 32 16 32Z" fill="#26A17B"/>
<path id="Vector_2" d="M17.7328 17.5949C17.6299 17.5949 17.0383 17.6463 15.7778 17.6463C14.7489 17.6463 14.0544 17.6206 13.7971 17.5949C9.91287 17.4405 6.9804 16.746 6.9804 15.9486C6.9804 15.1254 9.88715 14.4566 13.7971 14.2765V16.926C14.0544 16.9518 14.7746 16.9775 15.8035 16.9775C17.0126 16.9775 17.6299 16.926 17.7328 16.926V14.2765C21.6428 14.4566 24.5495 15.1254 24.5495 15.9486C24.5495 16.746 21.6428 17.4405 17.7328 17.5949ZM17.7328 13.9936V11.627H23.1862V8H8.36947V11.627H13.8228V13.9936C9.3984 14.1994 6.08008 15.074 6.08008 16.1286C6.08008 17.1833 9.3984 18.0579 13.8228 18.2637V25.8778H17.7585V18.2637C22.183 18.0579 25.5013 17.1833 25.5013 16.1286C25.4756 15.074 22.1572 14.1994 17.7328 13.9936Z" fill="white"/>
</g>
</svg>
